<svg fill="#FFF" xmlns="http://www.w3.org/2000/svg" viewBox="0 0 701 168.2">
  <path d="M122.5 147.6s0-.1 0 0c-.3-.5-.5-.9-.7-1.3 0-.1-.1-.2-.1-.2-.2-.4-.3-.9-.4-1.4-.1-.5-.2-1-.2-1.5V25c0-.5 0-1 .2-1.5.1-.5.2-1 .4-1.5s.4-.9.7-1.4c.3-.4.6-.9 1-1.3l10.5-11.2-3.3-8.1-14.1 1.4-24.1 2.5-12.9 1.3-38.6 4-12.2 1.2-18.4 1.9L0 13.4l8.4 8.9c.3.3.6.7.8 1.1l.6 1.2c.2.4.3.9.4 1.4.1.5.1 1 .1 1.4v113.5c0 .5 0 1-.1 1.4-.1.5-.2.9-.4 1.4l-.6 1.2c-.2.4-.5.7-.8 1.1L0 154.8l10.3 1.1 30.6 3.1 11.5 1.2 10.1-6.8-8.7-10.1c-.3-.3-.6-.7-.8-1.1v-.1c-.2-.4-.4-.7-.5-1.1 0-.1-.1-.2-.1-.2-.1-.4-.3-.8-.3-1.2-.1-.5-.1-.9-.1-1.4V25.4l27.7-2.2v123.3c0 .5 0 1.1-.1 1.6s-.2 1-.4 1.5-.4.9-.7 1.3c-.3.4-.6.8-1 1.2l-10.1 9.7 12.4 1.3 37.1 3.8 14.1 1.4 3.4-8.2-10.5-11.2c-.8-.5-1.1-.9-1.4-1.3M274.6 49.9c-5.3-3.4-12.9-5.3-21.8-5.3h-40v.6l7.7 7.3c.9.9 1 1.1 1 2.6v60.1c0 1.4-.1 1.7-.9 2.6l-7.7 7.3v.6h41.9v-.7l-10.9-8c-1.1-.8-1.2-1.2-1.2-2.7V95.8h7.2c21.9 0 34.5-9.7 34.5-26.6 0-8.6-3.3-15.1-9.8-19.3zm-31.9-.5c0-1.8.2-1.9 1.8-1.9h4.3c8.2 0 13.4 8.5 13.4 22.3 0 14.5-5.4 23.2-14.5 23.2h-5V49.4zM332.9 72.8c-5.5-4.3-12.4-5.2-17.2-5.2-6.8 0-29 2.2-29 29.9 0 9.4 3 17 8.7 22.2 5 4.5 11.9 6.9 19.6 6.9 14 0 22.6-7.2 25.5-21.4l.1-.3h-.7l-.1.1c-3.3 6.7-9.4 10.4-17.2 10.4-10.1 0-16.1-7.7-16.1-20.7h34.3v-.2c.1-1.4.1-2.2.1-2.5.1-8.6-2.7-15-8-19.2zm-10 16.2c0 .5 0 1.8-.1 3.2h-16.3c.3-19.4 4.9-21.9 8.9-21.9 5.3-.1 7.5 5.5 7.5 18.7zM369.6 117.1V41.7l-25.6 3h-.2v.6l5.7 5.3c.9.9 1 1.3 1 2.7v63.9c0 1.4-.1 1.7-.9 2.6l-5.7 5.3v.6h32.6v-.7l-5.7-5.3c-1.1-.9-1.2-1.1-1.2-2.6zM403.8 49.2h-.6l-16.1 18.1c-1.1 1.2-1.6 1.2-3.4 1.2h-5.4v2.8h6.3v39.3c0 10.6 5.1 15.9 15.1 15.9 5.1 0 9.2-1.4 12.2-4.2 3.1-2.9 4.3-6.5 4.8-9.1v-.2l-.6-.3-.1.3c-1.1 2-3.3 4.1-6.4 4.1-3.6 0-5.8-2.9-5.8-7.9v-38h14.1v-2.8h-14.1V49.2zM478.1 115.8c-.7 1.3-1.6 1.9-3 1.9-.7 0-1.3-.2-1.7-.7-.9-.9-1.3-2.8-1.1-5.7L473 95v-1c0-1 .1-2.3.1-3.1 0-8.5-1.9-14.4-5.8-18-3.9-3.6-9.5-5.3-17.9-5.3-7.2 0-15.2 1.5-23.2 4.4l-.3.1 7.3 16.6.1.2h.6l9.3-17.3c.6-1.2.7-1.2 2.9-1.2 6.7 0 8.1 7 8.1 12.9l-.2 12.2c-3-1.9-6.8-2.9-11.9-2.9-9.4 0-19.5 6.1-19.5 17.5 0 11.3 7.9 16.4 15.8 16.4 7 0 12.8-3.9 15.4-10.2.9 7 6.9 10.2 12.6 10.2 5.3 0 9.5-2.3 11.4-6.4.7-1.4.9-3.2.9-4.2v-.3h-.6v.2zM450 96.7c1.4 0 2.7.2 4 .6l-.2 16.5c-1.5 2.3-4 3.8-6.3 3.8-4 0-6.5-3.6-6.5-9.5 0-6.9 3.5-11.4 9-11.4zM522 67.5c-6.6 0-11.9 5.1-14.5 13.9v-13h-25.9v.6l5.7 5.8c.9 1 1 1.3 1 2.7v39.6c0 1.5 0 1.7-.9 2.6l-5.7 5.3v.6h38.9v-.6l-11.3-6.6c-1.5-1-1.6-1.5-1.6-2.6V84.9c1.8-3.4 3-5.2 4.8-6.5.6-.4 1.1-.2 1.7.5l9.1 10.8h.5l6.4-18.3-.1-.1c-2-2.4-4.8-3.8-8.1-3.8z"></path>
  <path d="M560.6 117.1V68.5h-25.9v.6l5.7 5.8c.9 1 1 1.3 1 2.7v39.6c0 1.5 0 1.7-.9 2.6l-5.7 5.3v.6h32.6v-.7l-5.7-5.3c-1.1-.9-1.1-1.1-1.1-2.6zM550.6 62.7c5.5 0 9.5-3.7 9.5-8.7 0-5.4-3.9-9.2-9.5-9.2-5.5 0-9.4 3.9-9.4 9.2 0 4.9 4 8.7 9.4 8.7z"></path>
  <path d="M599.5 67.5c-19 0-30.4 11-30.4 29.4 0 18.8 11.1 29.6 30.4 29.6 19.1 0 30.5-11 30.5-29.4 0-9.5-2.8-17-8.4-22.1-5.3-4.9-12.9-7.5-22.1-7.5zm0 2.7c5.4 0 9 4.6 9 26.9s-3.6 26.9-9 26.9-9-4.6-9-27c0-22.2 3.6-26.8 9-26.8zM695.2 119.7c-.9-.9-1-1.1-1-2.6 0-3.3.1-6.7.2-9.9.1-5.5.2-10.8.2-15.3 0-15.7-6.4-24.4-18.1-24.4-8.4 0-14.7 4.2-17.9 11.9v-11h-25.9v.6l5.7 5.8c.9 1 1 1.3 1 2.7v39.6c0 1.5 0 1.7-.9 2.6l-5.6 5.3-.1.1v.6h32.6v-.7l-5.7-5.3c-.9-.8-.9-1.1-.9-2.6V82.4c2.3-3.2 5-4.9 8.2-4.9 6 0 8.4 4.9 8.4 17 0 3.5-.1 11.1-.2 16.6-.1 3-.1 5.4-.1 6.1 0 1.2-.1 1.6-1 2.4l-5.5 5.3-.1.1v.6H701v-.6l-5.8-5.3z"></path>
</svg>